# xmcd CD database file
#
# Track frame offsets:
#	182
#	12615
#	22555
#	34000
#	42135
#	50407
#	60147
#	72425
#	85127
#	94970
#	104357
#	114567
#	124682
#	137132
#
# Disc length: 1987 seconds
#
# Revision: 0
# Processed by: cddbd v1.5.1PL2 Copyright (c) Steve Scherf et al.
# Submitted via: CDex 1.51
#
DISCID=b007c10e
DTITLE=johnny cash - born to lose
DYEAR=1900
DGENRE=Country
TTITLE0=I walk the line
TTITLE1=Ballad of a teenage queen
TTITLE2=Big river
TTITLE3=Wreck of the old 97
TTITLE4=Guess things happen that way
TTITLE5=Born to lose
TTITLE6=Give my love to rose
TTITLE7=Folsom prison blues
TTITLE8=Rock island line
TTITLE9=Luther played the boogie
TTITLE10=Straight a's in love
TTITLE11=Get rhythm
TTITLE12=Next in line
TTITLE13=You're the nearest thing to heaven
EXTD=
EXTT0=
EXTT1=
EXTT2=
EXTT3=
EXTT4=
EXTT5=
EXTT6=
EXTT7=
EXTT8=
EXTT9=
EXTT10=
EXTT11=
EXTT12=
EXTT13=
PLAYORDER=
